<svg width="220" height="40" viewBox="0 0 220 40" fill="none" xmlns="http://www.w3.org/2000/svg">
<g id="VK">
<rect id="Rectangle 2" width="220" height="40" rx="3" fill="url(#paint0_linear)"/>
<path id="&#208;&#151;&#208;&#176;&#208;&#178;&#208;&#181;&#209;&#128;&#209;&#136;&#208;&#184;&#209;&#130;&#209;&#140; &#209;&#128;&#208;&#181;&#208;&#179;&#208;&#184;&#209;&#129;&#209;&#130;&#209;&#128;&#208;&#176;&#209;&#134;&#208;&#184;" d="M20.4761 16.1924L18.3667 15.7017C18.8208 13.9536 20.1123 13.0796 22.2412 13.0796C23.501 13.0796 24.4507 13.3579 25.0903 13.9146C25.7349 14.4663 26.0571 15.1157 26.0571 15.8628C26.0571 16.3755 25.9106 16.8394 25.6177 17.2544C25.3247 17.6646 24.8853 18.0259 24.2993 18.3384C25.0122 18.5825 25.5469 18.9292 25.9033 19.3784C26.2598 19.8228 26.438 20.3721 26.438 21.0264C26.438 21.9688 26.0913 22.7305 25.3979 23.3115C24.7095 23.8926 23.6768 24.1831 22.2998 24.1831C21.1768 24.1831 20.2905 23.9976 19.6411 23.6265C18.9917 23.2505 18.5034 22.5498 18.1763 21.5244L20.1611 20.8726C20.3662 21.5171 20.6372 21.9346 20.9741 22.125C21.3159 22.3154 21.7358 22.4106 22.2339 22.4106C22.9175 22.4106 23.4155 22.2642 23.728 21.9712C24.0405 21.6733 24.1968 21.334 24.1968 20.9531C24.1968 20.5137 24.0186 20.1597 23.6621 19.8911C23.3105 19.6226 22.7783 19.4883 22.0654 19.4883H21.5747V17.8696H21.8237C22.4878 17.8696 22.9956 17.7207 23.3472 17.4229C23.6987 17.125 23.8745 16.7295 23.8745 16.2363C23.8745 15.8457 23.7305 15.5161 23.4424 15.2476C23.1592 14.979 22.7515 14.8447 22.2192 14.8447C21.311 14.8447 20.73 15.2939 20.4761 16.1924ZM29.873 18.5947L28.0054 18.2578C28.2153 17.5059 28.5767 16.9492 29.0894 16.5879C29.6021 16.2266 30.3638 16.0459 31.3745 16.0459C32.2925 16.0459 32.9761 16.1558 33.4253 16.3755C33.8745 16.5903 34.1895 16.8662 34.3701 17.2031C34.5557 17.5352 34.6484 18.1479 34.6484 19.0415L34.6265 21.4438C34.6265 22.1274 34.6582 22.6328 34.7217 22.96C34.79 23.2822 34.9146 23.6289 35.0952 24H33.0591C33.0054 23.8633 32.9395 23.6606 32.8613 23.3921C32.8271 23.27 32.8027 23.1895 32.7881 23.1504C32.4365 23.4922 32.0605 23.7485 31.6602 23.9194C31.2598 24.0903 30.8325 24.1758 30.3784 24.1758C29.5776 24.1758 28.9453 23.9585 28.4814 23.5239C28.0225 23.0894 27.793 22.54 27.793 21.876C27.793 21.4365 27.8979 21.0459 28.1079 20.7041C28.3179 20.3574 28.6108 20.0938 28.9868 19.9131C29.3677 19.7275 29.9146 19.5664 30.6274 19.4297C31.5894 19.249 32.2559 19.0806 32.627 18.9243V18.7192C32.627 18.3237 32.5293 18.043 32.334 17.877C32.1387 17.7061 31.77 17.6206 31.228 17.6206C30.8618 17.6206 30.5762 17.6938 30.3711 17.8403C30.166 17.9819 30 18.2334 29.873 18.5947ZM32.627 20.2646C32.3633 20.3525 31.9458 20.4575 31.3745 20.5796C30.8032 20.7017 30.4297 20.8213 30.2539 20.9385C29.9854 21.1289 29.8511 21.3706 29.8511 21.6636C29.8511 21.9517 29.9585 22.2007 30.1733 22.4106C30.3882 22.6206 30.6616 22.7256 30.9937 22.7256C31.3647 22.7256 31.7188 22.6035 32.0557 22.3594C32.3047 22.1738 32.4683 21.9468 32.5464 21.6782C32.6001 21.5024 32.627 21.168 32.627 20.6748V20.2646ZM36.7065 16.2217H41.2109C42.1338 16.2217 42.8247 16.3901 43.2837 16.7271C43.7427 17.064 43.9722 17.5718 43.9722 18.2505C43.9722 18.6851 43.8452 19.0635 43.5913 19.3857C43.3423 19.708 43.0273 19.9229 42.6465 20.0303C43.1836 20.1621 43.584 20.4087 43.8477 20.77C44.1113 21.1313 44.2432 21.5269 44.2432 21.9565C44.2432 22.562 44.021 23.0552 43.5767 23.436C43.1323 23.812 42.4756 24 41.6064 24H36.7065V16.2217ZM38.7793 19.4517H40.105C40.7446 19.4517 41.2061 19.3711 41.4893 19.21C41.7773 19.0488 41.9214 18.7949 41.9214 18.4482C41.9214 18.1211 41.7871 17.8892 41.5186 17.7524C41.2549 17.6108 40.7837 17.54 40.105 17.54H38.7793V19.4517ZM38.7793 22.6816H40.4053C40.9912 22.6816 41.4185 22.6108 41.687 22.4692C41.9556 22.3276 42.0898 22.0737 42.0898 21.7075C42.0898 21.3267 41.936 21.0654 41.6284 20.9238C41.3208 20.7773 40.7227 20.7041 39.834 20.7041H38.7793V22.6816ZM50.2124 21.5244L52.2632 21.8687C51.9995 22.6206 51.582 23.1943 51.0107 23.5898C50.4443 23.9805 49.7339 24.1758 48.8794 24.1758C47.5269 24.1758 46.5259 23.7339 45.8765 22.8501C45.3638 22.1421 45.1074 21.2485 45.1074 20.1694C45.1074 18.8804 45.4443 17.8721 46.1182 17.1445C46.792 16.4121 47.644 16.0459 48.6743 16.0459C49.8315 16.0459 50.7446 16.4292 51.4136 17.1958C52.0825 17.9575 52.4023 19.127 52.373 20.7041H47.2168C47.2314 21.3145 47.3975 21.7905 47.7148 22.1323C48.0322 22.4692 48.4277 22.6377 48.9014 22.6377C49.2236 22.6377 49.4946 22.5498 49.7144 22.374C49.9341 22.1982 50.1001 21.915 50.2124 21.5244ZM50.3296 19.4443C50.3149 18.8486 50.1611 18.397 49.8682 18.0894C49.5752 17.7769 49.2188 17.6206 48.7988 17.6206C48.3496 17.6206 47.9785 17.7842 47.6855 18.1113C47.3926 18.4385 47.2485 18.8828 47.2534 19.4443H50.3296ZM53.999 16.2217H55.918V17.3643C56.167 16.9736 56.5039 16.6562 56.9287 16.4121C57.3535 16.168 57.8247 16.0459 58.3423 16.0459C59.2456 16.0459 60.0122 16.3999 60.6421 17.1079C61.272 17.8159 61.5869 18.8022 61.5869 20.0669C61.5869 21.3657 61.2695 22.3765 60.6348 23.0991C60 23.8169 59.231 24.1758 58.3276 24.1758C57.8979 24.1758 57.5073 24.0903 57.1558 23.9194C56.8091 23.7485 56.4429 23.4556 56.0571 23.0405V26.959H53.999V16.2217ZM56.0352 19.979C56.0352 20.853 56.2085 21.5 56.5552 21.9199C56.9019 22.335 57.3242 22.5425 57.8223 22.5425C58.3008 22.5425 58.6987 22.3521 59.0161 21.9712C59.3335 21.5854 59.4922 20.9556 59.4922 20.0815C59.4922 19.2661 59.3286 18.6606 59.0015 18.2651C58.6743 17.8696 58.269 17.6719 57.7856 17.6719C57.2827 17.6719 56.8652 17.8672 56.5332 18.2578C56.2012 18.6436 56.0352 19.2173 56.0352 19.979ZM63.1763 16.2217H65.0659V22.3374H67.4536V16.2217H69.3506V22.3374H71.731V16.2217H73.6279V24H63.1763V16.2217ZM75.686 16.2217H77.6636V21.1069L80.8276 16.2217H82.8491V24H80.8716V19.0269L77.6636 24H75.686V16.2217ZM84.043 16.2217H91.0815V17.8843H88.5913V24H86.5332V17.8843H84.043V16.2217ZM92.3633 16.2217H94.4214V19.4517H96.4868C97.2974 19.4517 97.9199 19.5103 98.3545 19.6274C98.7891 19.7446 99.1504 19.9985 99.4385 20.3892C99.7266 20.7749 99.8706 21.2241 99.8706 21.7368C99.8706 22.4888 99.6118 23.0552 99.0942 23.436C98.5815 23.812 97.8101 24 96.7798 24H92.3633V16.2217ZM94.4214 22.6963H96.3403C96.9409 22.6963 97.3242 22.5986 97.4902 22.4033C97.6611 22.208 97.7466 21.9761 97.7466 21.7075C97.7466 21.3315 97.6001 21.0728 97.3071 20.9312C97.019 20.7896 96.5039 20.7188 95.7617 20.7188H94.4214V22.6963ZM105.664 16.2217H107.583V17.3643C107.832 16.9736 108.169 16.6562 108.594 16.4121C109.019 16.168 109.49 16.0459 110.007 16.0459C110.911 16.0459 111.677 16.3999 112.307 17.1079C112.937 17.8159 113.252 18.8022 113.252 20.0669C113.252 21.3657 112.935 22.3765 112.3 23.0991C111.665 23.8169 110.896 24.1758 109.993 24.1758C109.563 24.1758 109.172 24.0903 108.821 23.9194C108.474 23.7485 108.108 23.4556 107.722 23.0405V26.959H105.664V16.2217ZM107.7 19.979C107.7 20.853 107.874 21.5 108.22 21.9199C108.567 22.335 108.989 22.5425 109.487 22.5425C109.966 22.5425 110.364 22.3521 110.681 21.9712C110.999 21.5854 111.157 20.9556 111.157 20.0815C111.157 19.2661 110.994 18.6606 110.667 18.2651C110.339 17.8696 109.934 17.6719 109.451 17.6719C108.948 17.6719 108.53 17.8672 108.198 18.2578C107.866 18.6436 107.7 19.2173 107.7 19.979ZM119.397 21.5244L121.448 21.8687C121.184 22.6206 120.767 23.1943 120.195 23.5898C119.629 23.9805 118.918 24.1758 118.064 24.1758C116.711 24.1758 115.71 23.7339 115.061 22.8501C114.548 22.1421 114.292 21.2485 114.292 20.1694C114.292 18.8804 114.629 17.8721 115.303 17.1445C115.977 16.4121 116.829 16.0459 117.859 16.0459C119.016 16.0459 119.929 16.4292 120.598 17.1958C121.267 17.9575 121.587 19.127 121.558 20.7041H116.401C116.416 21.3145 116.582 21.7905 116.899 22.1323C117.217 22.4692 117.612 22.6377 118.086 22.6377C118.408 22.6377 118.679 22.5498 118.899 22.374C119.119 22.1982 119.285 21.915 119.397 21.5244ZM119.514 19.4443C119.5 18.8486 119.346 18.397 119.053 18.0894C118.76 17.7769 118.403 17.6206 117.983 17.6206C117.534 17.6206 117.163 17.7842 116.87 18.1113C116.577 18.4385 116.433 18.8828 116.438 19.4443H119.514ZM123.162 16.2217H128.413V17.8843H125.22V24H123.162V16.2217ZM129.446 16.2217H131.423V21.1069L134.587 16.2217H136.609V24H134.631V19.0269L131.423 24H129.446V16.2217ZM145.508 18.5215L143.479 18.8877C143.411 18.4824 143.254 18.1772 143.01 17.9722C142.771 17.7671 142.458 17.6646 142.073 17.6646C141.56 17.6646 141.15 17.8428 140.842 18.1992C140.54 18.5508 140.388 19.1416 140.388 19.9717C140.388 20.8945 140.542 21.5464 140.85 21.9272C141.162 22.3081 141.58 22.4985 142.102 22.4985C142.493 22.4985 142.812 22.3887 143.062 22.1689C143.311 21.9443 143.486 21.561 143.589 21.019L145.61 21.3633C145.4 22.291 144.998 22.9917 144.402 23.4653C143.806 23.939 143.008 24.1758 142.007 24.1758C140.869 24.1758 139.961 23.8169 139.282 23.0991C138.608 22.3813 138.271 21.3877 138.271 20.1182C138.271 18.834 138.611 17.8354 139.29 17.1226C139.968 16.4048 140.886 16.0459 142.043 16.0459C142.991 16.0459 143.743 16.251 144.299 16.6611C144.861 17.0664 145.264 17.6865 145.508 18.5215ZM146.152 16.2217H153.191V17.8843H150.701V24H148.643V17.8843H146.152V16.2217ZM154.37 16.2217H156.289V17.3643C156.538 16.9736 156.875 16.6562 157.3 16.4121C157.725 16.168 158.196 16.0459 158.713 16.0459C159.617 16.0459 160.383 16.3999 161.013 17.1079C161.643 17.8159 161.958 18.8022 161.958 20.0669C161.958 21.3657 161.641 22.3765 161.006 23.0991C160.371 23.8169 159.602 24.1758 158.699 24.1758C158.269 24.1758 157.878 24.0903 157.527 23.9194C157.18 23.7485 156.814 23.4556 156.428 23.0405V26.959H154.37V16.2217ZM156.406 19.979C156.406 20.853 156.58 21.5 156.926 21.9199C157.273 22.335 157.695 22.5425 158.193 22.5425C158.672 22.5425 159.07 22.3521 159.387 21.9712C159.705 21.5854 159.863 20.9556 159.863 20.0815C159.863 19.2661 159.7 18.6606 159.373 18.2651C159.045 17.8696 158.64 17.6719 158.157 17.6719C157.654 17.6719 157.236 17.8672 156.904 18.2578C156.572 18.6436 156.406 19.2173 156.406 19.979ZM165.137 18.5947L163.269 18.2578C163.479 17.5059 163.84 16.9492 164.353 16.5879C164.866 16.2266 165.627 16.0459 166.638 16.0459C167.556 16.0459 168.24 16.1558 168.689 16.3755C169.138 16.5903 169.453 16.8662 169.634 17.2031C169.819 17.5352 169.912 18.1479 169.912 19.0415L169.89 21.4438C169.89 22.1274 169.922 22.6328 169.985 22.96C170.054 23.2822 170.178 23.6289 170.359 24H168.323C168.269 23.8633 168.203 23.6606 168.125 23.3921C168.091 23.27 168.066 23.1895 168.052 23.1504C167.7 23.4922 167.324 23.7485 166.924 23.9194C166.523 24.0903 166.096 24.1758 165.642 24.1758C164.841 24.1758 164.209 23.9585 163.745 23.5239C163.286 23.0894 163.057 22.54 163.057 21.876C163.057 21.4365 163.162 21.0459 163.372 20.7041C163.582 20.3574 163.875 20.0938 164.25 19.9131C164.631 19.7275 165.178 19.5664 165.891 19.4297C166.853 19.249 167.52 19.0806 167.891 18.9243V18.7192C167.891 18.3237 167.793 18.043 167.598 17.877C167.402 17.7061 167.034 17.6206 166.492 17.6206C166.125 17.6206 165.84 17.6938 165.635 17.8403C165.43 17.9819 165.264 18.2334 165.137 18.5947ZM167.891 20.2646C167.627 20.3525 167.209 20.4575 166.638 20.5796C166.067 20.7017 165.693 20.8213 165.518 20.9385C165.249 21.1289 165.115 21.3706 165.115 21.6636C165.115 21.9517 165.222 22.2007 165.437 22.4106C165.652 22.6206 165.925 22.7256 166.257 22.7256C166.628 22.7256 166.982 22.6035 167.319 22.3594C167.568 22.1738 167.732 21.9468 167.81 21.6782C167.864 21.5024 167.891 21.168 167.891 20.6748V20.2646ZM171.875 16.2217H173.933V22.3374H176.87V16.2217H178.928V22.3374H179.741V26.0508H178.079V24H171.875V16.2217ZM181.125 16.2217H183.103V21.1069L186.267 16.2217H188.289V24H186.311V19.0269L183.103 24H181.125V16.2217ZM190.391 16.2217H192.449V19.3638H194.089C194.197 18.3677 194.573 17.5669 195.217 16.9614C195.867 16.3511 196.733 16.0459 197.817 16.0459C198.911 16.0459 199.807 16.3999 200.505 17.1079C201.204 17.8159 201.553 18.8364 201.553 20.1694C201.553 20.9507 201.421 21.6343 201.157 22.2202C200.898 22.8062 200.5 23.2798 199.963 23.6411C199.426 23.9976 198.726 24.1758 197.861 24.1758C196.616 24.1758 195.688 23.8389 195.078 23.165C194.468 22.4863 194.138 21.7637 194.089 20.9971H192.449V24H190.391V16.2217ZM197.788 17.6499C197.217 17.6499 196.799 17.833 196.536 18.1992C196.277 18.5654 196.147 19.1489 196.147 19.9497C196.147 20.9751 196.287 21.6685 196.565 22.0298C196.848 22.3862 197.275 22.5645 197.847 22.5645C198.374 22.5645 198.77 22.3643 199.033 21.9639C199.297 21.5586 199.429 20.9531 199.429 20.1475C199.429 19.1611 199.285 18.4995 198.997 18.1626C198.713 17.8208 198.311 17.6499 197.788 17.6499Z" fill="white"/>
</g>
<defs>
<linearGradient id="paint0_linear" x1="0" y1="0" x2="0" y2="40" gradientUnits="userSpaceOnUse">
<stop stop-color="#FF008A"/>
<stop offset="1" stop-color="#CF00AD"/>
</linearGradient>
</defs>
</svg>
