<svg width="40" height="40" viewBox="0 0 40 40" fill="none" xmlns="http://www.w3.org/2000/svg">
<g id="OK">
<rect id="Rectangle 2" width="40" height="40" rx="3" fill="#EF7800"/>
<path id="Combined Shape" fill-rule="evenodd" clip-rule="evenodd" d="M23.5079 26.6369C23.9198 26.2256 23.9198 25.5575 23.5079 25.1462L21.4954 23.1344C22.2279 22.9675 22.9348 22.6769 23.5848 22.2688C24.0779 21.9587 24.2261 21.3069 23.9161 20.8138C23.6061 20.3206 22.9554 20.1725 22.4617 20.4825C20.9873 21.4106 19.0898 21.4094 17.6161 20.4825C17.1229 20.1725 16.4723 20.3206 16.1629 20.8138C15.8517 21.3069 15.9998 21.9587 16.4923 22.2688C17.1436 22.6769 17.8504 22.9675 18.5829 23.1344L16.5704 25.1462C16.1592 25.5575 16.1592 26.2256 16.5704 26.6369C16.7773 26.8431 17.0467 26.9469 17.3161 26.9469C17.5867 26.9469 17.8561 26.8431 18.0623 26.6369L20.0392 24.6606L22.0167 26.6369C22.4279 27.0494 23.0961 27.0494 23.5079 26.6369ZM23.6392 16.6C23.6392 14.6144 22.0248 13 20.0392 13C18.0548 13 16.4404 14.6144 16.4404 16.6C16.4404 18.5844 18.0548 20.1981 20.0392 20.1981C22.0248 20.1981 23.6392 18.5844 23.6392 16.6ZM20.0388 14.5206C21.1409 14.5206 22.0392 15.4183 22.0392 16.5215C22.0392 17.6238 21.1409 18.5206 20.0388 18.5206C18.9358 18.5206 18.0392 17.6238 18.0392 16.5215C18.0392 15.4183 18.9358 14.5206 20.0388 14.5206Z" fill="white"/>
</g>
</svg>
