<svg width="40" height="40" viewBox="0 0 40 40" fill="none" xmlns="http://www.w3.org/2000/svg">
<g id="TL">
<rect id="Rectangle 2" width="40" height="40" rx="3" fill="#1C87D2"/>
<path id="Combined Shape" fill-rule="evenodd" clip-rule="evenodd" d="M24.9167 26.0359L27.2207 15.1789C27.4566 14.2332 26.8601 13.8043 26.2422 14.0847L12.713 19.3029C11.7896 19.6734 11.7951 20.1884 12.5447 20.4181L15.9189 21.4713L17.21 25.4295C17.244 25.5234 17.267 25.605 17.2868 25.6752C17.3584 25.9292 17.3881 26.0346 17.7445 26.0346C18.0878 26.0346 18.2443 25.8816 18.4339 25.6962C18.4382 25.692 18.4425 25.6878 18.4469 25.6835C18.5654 25.5675 19.242 24.9097 20.0192 24.1541L20.1339 24.0425L23.6437 26.6357C24.2896 26.9921 24.7559 26.8075 24.9167 26.0359ZM16.4485 21.2293L24.054 16.4309C24.4337 16.2007 24.7818 16.3245 24.496 16.5782L17.9837 22.4539L17.7301 25.1584L16.4485 21.2293Z" fill="white"/>
</g>
</svg>
