<svg width="40" height="40" viewBox="0 0 40 40" fill="none" xmlns="http://www.w3.org/2000/svg">
<g id="TW">
<rect id="Rectangle 2" width="40" height="40" rx="3" fill="#55ACEE"/>
<path id="Shape" d="M28 14.4202C27.4481 14.6615 26.8555 14.8245 26.2324 14.8969C26.8677 14.5222 27.3558 13.9286 27.586 13.2215C26.991 13.5682 26.3327 13.8211 25.6318 13.9563C25.07 13.3678 24.2702 13 23.3845 13C21.6848 13 20.3078 14.356 20.3078 16.0291C20.3078 16.2663 20.3345 16.498 20.387 16.7195C17.8293 16.5931 15.5619 15.3871 14.0437 13.5543C13.7793 14.002 13.6273 14.5222 13.6273 15.0774C13.6273 16.1288 14.1708 17.0555 14.996 17.5992C14.4919 17.5831 14.0174 17.4474 13.6025 17.2203C13.602 17.2328 13.602 17.2462 13.602 17.2582C13.602 18.7263 14.6626 19.9508 16.0706 20.2291C15.8127 20.2978 15.5408 20.3352 15.2599 20.3352C15.0611 20.3352 14.8689 20.3163 14.6814 20.2812C15.0724 21.484 16.2094 22.36 17.5555 22.3849C16.5029 23.1972 15.176 23.6823 13.7342 23.6823C13.4857 23.6823 13.2405 23.668 13 23.6398C14.3616 24.4983 15.9792 25 17.7173 25C23.3774 25 26.4734 20.3842 26.4734 16.3808C26.4734 16.2497 26.4696 16.1186 26.464 15.9885C27.0655 15.5615 27.5869 15.0285 28 14.4202Z" fill="white"/>
</g>
</svg>
