<?xml version="1.0" encoding="UTF-8"?>
<svg width="40px" height="40px" viewBox="0 0 40 40" version="1.1" xmlns="http://www.w3.org/2000/svg" xmlns:xlink="http://www.w3.org/1999/xlink">
    <!-- Generator: Sketch 55.2 (78181) - https://sketchapp.com -->
    <title>Untitled</title>
    <desc>Created with Sketch.</desc>
    <g id="Page-1" stroke="none" stroke-width="1" fill="none" fill-rule="evenodd">
        <g id="telegram" fill="#5181B8" fill-rule="nonzero">
            <rect id="Rectangle-2" x="0" y="0" width="40" height="40" rx="3"></rect>
        </g>
        <path d="M29.5395147,14.8052632 C29.6801992,14.3315789 29.5395147,14 28.882987,14 L26.6945614,14 C26.1318233,14 25.8817176,14.3 25.7410331,14.6315789 C25.7410331,14.6315789 24.6311886,17.3789474 23.0523958,19.1473684 C22.5365526,19.6684211 22.3177101,19.8263158 22.0363411,19.8263158 C21.8956566,19.8263158 21.6924456,19.6684211 21.6924456,19.1947368 L21.6924456,14.8052632 C21.6924456,14.2368421 21.5361295,14 21.0671811,14 L17.6282265,14 C17.2843311,14 17.0654885,14.2684211 17.0654885,14.5052632 C17.0654885,15.0421053 17.8470691,15.1684211 17.9408588,16.6526316 L17.9408588,19.9052632 C17.9408588,20.6157895 17.8158059,20.7421053 17.5344369,20.7421053 C16.7997511,20.7421053 14.9864842,17.9947368 13.9235346,14.8368421 C13.704692,14.2526316 13.501481,14 12.938743,14 L10.7503174,14 C10.1250529,14 10,14.3 10,14.6315789 C10,15.2157895 10.7346858,18.1210526 13.4545862,21.9578947 C15.2678532,24.5789474 17.8158059,26 20.1292844,26 C21.5204979,26 21.6924456,25.6842105 21.6924456,25.1473684 L21.6924456,23.1578947 C21.6924456,22.5263158 21.8174985,22.4 22.2708152,22.4 C22.5990791,22.4 23.1461855,22.5578947 24.4436093,23.8210526 C25.9286124,25.3210526 26.1787182,26 27.0071936,26 L29.1956193,26 C29.8208837,26 30.133516,25.6842105 29.9459366,25.0684211 C29.7427257,24.4526316 29.0393031,23.5526316 28.1014064,22.4789474 C27.5855632,21.8631579 26.8196143,21.2157895 26.6007717,20.8842105 C26.2725079,20.4578947 26.3662975,20.2684211 26.6007717,19.9052632 C26.6007717,19.8894737 29.2737773,16.1 29.5395147,14.8052632" id="Logo" fill="#FFFFFF"></path>
    </g>
</svg>